# xmcd
#
# Track frame offsets: 
#        150
#        24212
#        40370
#        59345
#        76777
#        91948
#        107135
#        125900
#        146751
#        160863
#        177299
#
# Disc length: 2645 seconds
#
# Revision: 1
# Processed by: cddbd v1.5.2PL0 Copyright (c) Steve Scherf et al.
# Submitted via: ExactAudioCopyFreeDBPlugin 1.0
#
DISCID=8d0a530b
DTITLE=Shelby Lynne - Just A Little Lovin'
DYEAR=2008
DGENRE=Country
TTITLE0=Just a Little Lovin'
TTITLE1=Anyone Who Had A Heart
TTITLE2=You Don't Have To Say You Love Me
TTITLE3=I Only Want To Be With You
TTITLE4=The Look Of Love
TTITLE5=Breakfast In Bed
TTITLE6=Willie And Laura Mae Jones
TTITLE7=I Don't Want To Hear It Anymore
TTITLE8=Pretend
TTITLE9=How Can I Be Sure
TTITLE10=Wishin' And Hopin'
EXTD=YEAR: 2008
EXTT0=
EXTT1=
EXTT2=
EXTT3=
EXTT4=
EXTT5=
EXTT6=
EXTT7=
EXTT8=
EXTT9=
EXTT10=
PLAYORDER=
